HIERARCHY
ROOT hip
{
  OFFSET 0 0 0
  CHANNELS 6 Xposition Yposition Zposition Zrotation Yrotation Xrotation
  JOINT abdomen
  {
    OFFSET 0 20.6881 -0.73152
    CHANNELS 3 Zrotation Xrotation Yrotation
    JOINT chest
    {
      OFFSET 0 11.7043 -0.48768
      CHANNELS 3 Zrotation Xrotation Yrotation
      JOINT neck
      {
        OFFSET 0 22.1894 -2.19456
        CHANNELS 3 Zrotation Xrotation Yrotation
        JOINT head
        {
          OFFSET -0.24384 7.07133 1.2192
          CHANNELS 3 Zrotation Xrotation Yrotation
          JOINT leftEye
          {
            OFFSET 4.14528 8.04674 8.04672
            CHANNELS 3 Zrotation Xrotation Yrotation
            End Site
            {
              OFFSET 1 0 0
            }
          }
          JOINT rightEye
          {
            OFFSET -3.6576 8.04674 8.04672
            CHANNELS 3 Zrotation Xrotation Yrotation
            End Site
            {
              OFFSET 1 0 0
            }
          }
        }
      }
      JOINT rCollar
      {
        OFFSET -2.68224 19.2634 -4.8768
        CHANNELS 3 Zrotation Xrotation Yrotation
        JOINT rShldr
        {
          OFFSET -8.77824 -1.95073 1.46304
          CHANNELS 3 Zrotation Xrotation Yrotation
          JOINT rForeArm
          {
            OFFSET -28.1742 -1.7115 0.48768
            CHANNELS 3 Zrotation Xrotation Yrotation
            JOINT rHand
            {
              OFFSET -22.5879 0.773209 7.07136
              CHANNELS 3 Zrotation Xrotation Yrotation
              JOINT rThumb1
              {
                OFFSET -1.2192 -0.487915 3.41376
                CHANNELS 3 Zrotation Xrotation Yrotation
                JOINT rThumb2
                {
                  OFFSET -3.37035 -0.52449 3.41376
                  CHANNELS 3 Zrotation Xrotation Yrotation
                  End Site
                  {
                    OFFSET -1.78271 -1.18214 1.43049
                  }
                }
              }
              JOINT rIndex1
              {
                OFFSET -7.75947 0.938293 5.60832
                CHANNELS 3 Zrotation Xrotation Yrotation
                JOINT rIndex2
                {
                  OFFSET -2.54057 -0.884171 1.56538
                  CHANNELS 3 Zrotation Xrotation Yrotation
                  End Site
                  {
                    OFFSET -1.62519 -0.234802 1.16502
                  }
                }
              }
              JOINT rMid1
              {
                OFFSET -8.24714 1.18213 3.41376
                CHANNELS 3 Zrotation Xrotation Yrotation
                JOINT rMid2
                {
                  OFFSET -3.10165 -0.590103 1.0647
                  CHANNELS 3 Zrotation Xrotation Yrotation
                  End Site
                  {
                    OFFSET -2.48547 -0.328903 0.83742
                  }
                }
              }
              JOINT rRing1
              {
                OFFSET -8.82822 0.546677 1.51678
                CHANNELS 3 Zrotation Xrotation Yrotation
                JOINT rRing2
                {
                  OFFSET -2.60934 -0.819778 -0.0198488
                  CHANNELS 3 Zrotation Xrotation Yrotation
                  End Site
                  {
                    OFFSET -2.33842 -0.294052 0.168128
                  }
                }
              }
              JOINT rPinky1
              {
                OFFSET -8.27202 -0.0477905 -0.4584
                CHANNELS 3 Zrotation Xrotation Yrotation
                JOINT rPinky2
                {
                  OFFSET -1.82734 -0.647385 -0.700984
                  CHANNELS 3 Zrotation Xrotation Yrotation
                  End Site
                  {
                    OFFSET -1.69225 -0.51767 -0.607171
                  }
                }
              }
            }
          }
        }
      }
      JOINT lCollar
      {
        OFFSET 2.68224 19.2634 -4.8768
        CHANNELS 3 Zrotation Xrotation Yrotation
        JOINT lShldr
        {
          OFFSET 8.77824 -1.95073 1.46304
          CHANNELS 3 Zrotation Xrotation Yrotation
          JOINT lForeArm
          {
            OFFSET 28.1742 -1.7115 0.48768
            CHANNELS 3 Zrotation Xrotation Yrotation
            JOINT lHand
            {
              OFFSET 22.5879 0.773209 7.07136
              CHANNELS 3 Zrotation Xrotation Yrotation
              JOINT lThumb1
              {
                OFFSET 1.2192 -0.487915 3.41376
                CHANNELS 3 Zrotation Xrotation Yrotation
                JOINT lThumb2
                {
                  OFFSET 3.37035 -0.52449 3.41376
                  CHANNELS 3 Zrotation Xrotation Yrotation
                  End Site
                  {
                    OFFSET 1.78271 -1.18214 1.43049
                  }
                }
              }
              JOINT lIndex1
              {
                OFFSET 7.75947 0.938293 5.60832
                CHANNELS 3 Zrotation Xrotation Yrotation
                JOINT lIndex2
                {
                  OFFSET 2.54057 -0.884171 1.56538
                  CHANNELS 3 Zrotation Xrotation Yrotation
                  End Site
                  {
                    OFFSET 1.62519 -0.234802 1.16502
                  }
                }
              }
              JOINT lMid1
              {
                OFFSET 8.24714 1.18213 3.41376
                CHANNELS 3 Zrotation Xrotation Yrotation
                JOINT lMid2
                {
                  OFFSET 3.10165 -0.590103 1.0647
                  CHANNELS 3 Zrotation Xrotation Yrotation
                  End Site
                  {
                    OFFSET 2.48547 -0.328903 0.83742
                  }
                }
              }
              JOINT lRing1
              {
                OFFSET 8.82822 0.546677 1.51678
                CHANNELS 3 Zrotation Xrotation Yrotation
                JOINT lRing2
                {
                  OFFSET 2.60934 -0.819778 -0.0198488
                  CHANNELS 3 Zrotation Xrotation Yrotation
                  End Site
                  {
                    OFFSET 2.33842 -0.294052 0.168128
                  }
                }
              }
              JOINT lPinky1
              {
                OFFSET 8.27202 -0.0477905 -0.4584
                CHANNELS 3 Zrotation Xrotation Yrotation
                JOINT lPinky2
                {
                  OFFSET 1.82734 -0.647385 -0.700984
                  CHANNELS 3 Zrotation Xrotation Yrotation
                  End Site
                  {
                    OFFSET 1.69225 -0.51767 -0.607171
                  }
                }
              }
            }
          }
        }
      }
    }
  }
  JOINT rButtock
  {
    OFFSET -8.77824 4.35084 1.2192
    CHANNELS 3 Zrotation Xrotation Yrotation
    JOINT rThigh
    {
      OFFSET 0 -1.70687 -2.19456
      CHANNELS 3 Zrotation Xrotation Yrotation
      JOINT rShin
      {
        OFFSET 0 -36.8199 0.73152
        CHANNELS 3 Zrotation Xrotation Yrotation
        JOINT rFoot
        {
          OFFSET 0.73152 -45.1104 -5.12064
          CHANNELS 3 Zrotation Xrotation Yrotation
          End Site
          {
            OFFSET -1.1221 -3.69964 12.103
          }
        }
      }
    }
  }
  JOINT lButtock
  {
    OFFSET 8.77824 4.35084 1.2192
    CHANNELS 3 Zrotation Xrotation Yrotation
    JOINT lThigh
    {
      OFFSET 0 -1.70687 -2.19456
      CHANNELS 3 Zrotation Xrotation Yrotation
      JOINT lShin
      {
        OFFSET 0 -36.8199 0.73152
        CHANNELS 3 Zrotation Xrotation Yrotation
        JOINT lFoot
        {
          OFFSET -0.73152 -45.1104 -5.12064
          CHANNELS 3 Zrotation Xrotation Yrotation
          End Site
          {
            OFFSET 1.1221 -3.69964 12.103
          }
        }
      }
    }
  }
}
MOTION
Frames:	6
Frame Time:	0.00833333
46.5656 116.959 25.233 175.941 0.9024 -168.546 -8.38514 8.74684 -1.72044 7.18303 2.27775 -0.731129 -2.90257 8.5339 -1.04879 6.97214 1.24261 1.15456 -0.0 0.0 0.0 -0.0 0.0 0.0 -2.08967e-13 1.31932e-14 -5.12814e-14 72.7726 -37.5957 -19.862 -7.33888 -2.67398 12.898 -2.38864 39.4562 6.64611 9.04675e-10 1.0916e-09 3.42912e-09 1.66598e-09 1.99368e-09 5.89412e-09 9.04678e-10 1.0916e-09 3.42911e-09 7.73091 5.47488 0.417314 9.04676e-10 1.0916e-09 3.42911e-09 2.90554 0.965183 0.102902 9.0468e-10 1.09159e-09 3.42912e-09 10.2786 0.731801 0.0259123 9.04671e-10 1.0916e-09 3.42912e-09 2.22167 -0.733487 -0.20892 -2.09054e-13 1.31952e-14 -5.1566e-14 -73.5527 31.6868 -14.6199 17.5004 -10.1585 -32.9089 0.306423 15.5632 -2.24322 1.22023e-09 2.3264e-09 1.20263e-09 2.12151e-09 4.01423e-09 2.06081e-09 1.22022e-09 2.3264e-09 1.20264e-09 -7.73091 5.47488 -0.417314 1.22023e-09 2.3264e-09 1.20263e-09 -2.90554 0.965183 -0.102902 1.22022e-09 2.3264e-09 1.20262e-09 -10.2786 0.731801 -0.0259123 1.22024e-09 2.3264e-09 1.20262e-09 -2.22167 -0.733487 0.20892 -2.03217e-16 0.0 -3.88251e-19 -3.45278 -58.7476 2.85116 -0.39049 42.636 0.594414 -2.61541 -8.59916 -9.29878 2.03217e-16 0.0 3.88251e-19 -8.8418 -15.6132 -8.33959 0.0733051 14.7652 -0.199665 1.16555 -23.0228 1.74226
46.6275 117.014 23.8956 175.974 0.4925 -168.663 -8.21574 8.85313 -2.03358 7.3123 2.38745 -0.945694 -2.99447 8.89227 -1.12592 7.34765 0.900894 1.01737 -0.0 0.0 0.0 -0.0 0.0 0.0 -1.28888e-13 -1.12312e-13 -3.67783e-14 71.0849 -40.599 -22.0778 -7.09418 -2.55375 12.4544 -2.82751 42.0956 7.30995 -6.1542e-11 -1.22424e-10 2.86351e-09 -9.92184e-12 -8.43824e-11 4.94648e-09 -6.15415e-11 -1.22425e-10 2.8635e-09 7.73091 5.47488 0.417314 -6.15431e-11 -1.22425e-10 2.86351e-09 2.90554 0.965183 0.102902 -6.15418e-11 -1.22426e-10 2.86351e-09 10.2786 0.731801 0.0259123 -6.15493e-11 -1.22423e-10 2.86352e-09 2.22167 -0.733487 -0.20892 -1.28994e-13 -1.12315e-13 -3.71168e-14 -72.8615 32.3544 -15.231 17.9111 -10.5939 -33.8116 0.317991 15.8478 -2.28638 6.66097e-10 1.45052e-09 6.16418e-10 1.15806e-09 2.50199e-09 1.05452e-09 6.66094e-10 1.45051e-09 6.16427e-10 -7.73091 5.47488 -0.417314 6.66099e-10 1.45052e-09 6.16421e-10 -2.90554 0.965183 -0.102902 6.6609e-10 1.45051e-09 6.16414e-10 -10.2786 0.731801 -0.0259123 6.66106e-10 1.45052e-09 6.16409e-10 -2.22167 -0.733487 0.20892 -2.03217e-16 0.0 -3.88251e-19 -3.78863 -59.2234 2.72447 -0.316741 39.1541 0.409213 -1.83885 -5.74444 -7.80338 2.03217e-16 0.0 3.88251e-19 -8.6926 -14.1107 -8.25454 0.0739794 13.9512 -0.150762 1.0637 -23.0414 1.53737
46.6987 117.029 22.5166 176.003 0.1092 -168.833 -8.05262 8.96833 -2.32206 7.42198 2.50887 -1.15363 -3.10622 9.29751 -1.21411 7.75183 0.493183 0.860365 -0.0 0.0 0.0 -0.0 0.0 0.0 -4.50735e-14 -2.25394e-13 -2.30812e-14 69.1172 -43.6522 -24.5143 -6.86095 -2.44153 12.0324 -3.362 44.9511 8.08417 -9.37112e-10 -1.21552e-09 2.03098e-09 -1.54059e-09 -1.97302e-09 3.53505e-09 -9.37113e-10 -1.21553e-09 2.03097e-09 7.73091 5.47488 0.417314 -9.37114e-10 -1.21553e-09 2.03097e-09 2.90554 0.965183 0.102902 -9.37115e-10 -1.21553e-09 2.03097e-09 10.2786 0.731801 0.0259123 -9.37121e-10 -1.21552e-09 2.03098e-09 2.22167 -0.733487 -0.20892 -4.51901e-14 -2.254e-13 -2.34659e-14 -72.1754 32.968 -15.8373 18.253 -10.9653 -34.5785 0.330445 16.1423 -2.33123 1.32247e-10 5.38706e-10 4.73032e-11 2.2994e-10 9.27523e-10 7.76675e-11 1.32247e-10 5.38689e-10 4.73084e-11 -7.73091 5.47488 -0.417314 1.3225e-10 5.38712e-10 4.73082e-11 -2.90554 0.965183 -0.102902 1.32239e-10 5.38688e-10 4.72995e-11 -10.2786 0.731801 -0.0259123 1.32255e-10 5.38709e-10 4.72934e-11 -2.22167 -0.733487 0.20892 -2.03217e-16 0.0 -3.88251e-19 -4.16913 -59.4847 2.50578 -0.269717 36.0056 0.248218 -1.20848 -2.63424 -6.45953 2.03217e-16 0.0 3.88251e-19 -8.56109 -12.6557 -8.2368 0.0756911 13.2617 -0.105225 0.975801 -23.0396 1.36332
46.7276 117.022 21.1011 175.816 -0.344 -169.012 -7.88468 9.07548 -2.63998 7.53016 2.63893 -1.33364 -3.22283 9.58939 -1.29743 8.06997 0.266774 0.722518 -0.0 0.0 0.0 -0.0 0.0 0.0 1.02001e-14 -2.57621e-13 -2.52457e-14 66.6958 -46.8966 -27.2746 -6.63539 -2.33452 11.6259 -4.05302 48.2037 9.04481 -1.29703e-09 -1.61327e-09 1.1418e-09 -2.19309e-09 -2.69924e-09 2.00967e-09 -1.29703e-09 -1.61327e-09 1.14179e-09 7.73091 5.47488 0.417314 -1.29703e-09 -1.61327e-09 1.14179e-09 2.90554 0.965183 0.102902 -1.29703e-09 -1.61328e-09 1.1418e-09 10.2786 0.731801 0.0259123 -1.29704e-09 -1.61327e-09 1.14181e-09 2.22167 -0.733487 -0.20892 1.00766e-14 -2.5763e-13 -2.56432e-14 -71.5719 33.4411 -16.4547 18.4868 -11.2199 -35.1217 0.338398 16.3242 -2.35905 -1.19948e-10 -4.99093e-11 -2.88801e-10 -2.09221e-10 -9.00574e-11 -4.99855e-10 -1.19946e-10 -4.99283e-11 -2.88798e-10 -7.73091 5.47488 -0.417314 -1.19945e-10 -4.99028e-11 -2.88794e-10 -2.90554 0.965183 -0.102902 -1.19956e-10 -4.99306e-11 -2.88804e-10 -10.2786 0.731801 -0.0259123 -1.1994e-10 -4.99065e-11 -2.8881e-10 -2.22167 -0.733487 0.20892 -2.03217e-16 0.0 -3.88251e-19 -4.57365 -59.5802 2.16535 -0.248424 33.6813 0.133234 -0.821473 -0.0562963 -5.63605 2.03217e-16 0.0 3.88251e-19 -8.44236 -11.2824 -8.28178 0.0780287 12.7848 -0.0719204 0.888486 -23.021 1.18667
46.7713 116.992 19.6833 175.614 -0.853 -169.156 -7.7268 9.20401 -3.02781 7.65232 2.79118 -1.48569 -3.37006 9.74047 -1.37344 8.30061 0.274483 0.613032 -0.0 0.0 0.0 -0.0 0.0 0.0 2.65183e-14 -1.59496e-13 -5.69033e-14 63.4221 -50.6288 -30.7297 -6.40612 -2.22796 11.2137 -5.07494 52.2034 10.3957 -8.60649e-10 -9.30712e-10 2.94694e-11 -1.49539e-09 -1.63036e-09 7.47082e-11 -8.60647e-10 -9.30711e-10 2.94633e-11 7.73091 5.47488 0.417314 -8.60649e-10 -9.30711e-10 2.94659e-11 2.90554 0.965183 0.102902 -8.60649e-10 -9.30712e-10 2.94702e-11 10.2786 0.731801 0.0259123 -8.60658e-10 -9.30712e-10 2.94806e-11 2.22167 -0.733487 -0.20892 2.63882e-14 -1.59504e-13 -5.72597e-14 -71.0186 33.7482 -17.176 18.5944 -11.3357 -35.3807 0.337656 16.3043 -2.35603 6.96396e-11 -1.84968e-10 -2.8737e-10 1.18208e-10 -3.26781e-10 -4.99236e-10 6.96413e-11 -1.84985e-10 -2.87367e-10 -7.73091 5.47488 -0.417314 6.9643e-11 -1.84962e-10 -2.87364e-10 -2.90554 0.965183 -0.102902 6.96325e-11 -1.84986e-10 -2.87372e-10 -10.2786 0.731801 -0.0259123 6.96462e-11 -1.84965e-10 -2.87378e-10 -2.22167 -0.733487 0.20892 -2.03217e-16 0.0 -3.88251e-19 -5.11369 -59.452 1.57022 -0.240072 32.3571 0.060978 -0.584051 2.09219 -5.48653 2.03217e-16 0.0 3.88251e-19 -8.35562 -9.97169 -8.4038 0.0801263 12.5624 -0.0530367 0.791265 -23.0367 0.982767
46.893 116.956 18.2607 175.595 -1.3806 -169.261 -7.57812 9.35144 -3.44815 7.77528 2.96247 -1.61928 -3.5464 9.83113 -1.44995 8.49637 0.388811 0.511494 -0.0 0.0 0.0 -0.0 0.0 0.0 2.16972e-14 2.2068e-14 -1.06819e-13 59.0856 -54.5946 -35.1456 -6.17885 -2.12476 10.8053 -6.60733 56.7316 12.2915 8.95893e-11 4.48535e-10 -1.34397e-09 6.94059e-11 5.90289e-10 -2.32678e-09 8.95951e-11 4.4854e-10 -1.34398e-09 7.73091 5.47488 0.417314 8.95925e-11 4.4854e-10 -1.34397e-09 2.90554 0.965183 0.102902 8.95968e-11 4.4854e-10 -1.34397e-09 10.2786 0.731801 0.0259123 8.95827e-11 4.48537e-10 -1.34396e-09 2.22167 -0.733487 -0.20892 2.15648e-14 2.20615e-14 -1.07098e-13 -70.4984 33.9354 -17.9584 18.6081 -11.3511 -35.4122 0.33187 16.1666 -2.33505 5.31469e-10 -6.95359e-11 -7.92078e-11 9.18074e-10 -1.32464e-10 -1.44479e-10 5.31469e-10 -6.95479e-11 -7.92044e-11 -7.73091 5.47488 -0.417314 5.31471e-10 -6.95322e-11 -7.92042e-11 -2.90554 0.965183 -0.102902 5.31463e-10 -6.95479e-11 -7.92093e-11 -10.2786 0.731801 -0.0259123 5.31473e-10 -6.95325e-11 -7.92139e-11 -2.22167 -0.733487 0.20892 -2.03217e-16 0.0 -3.88251e-19 -5.74199 -59.0942 0.794455 -0.234708 31.7565 0.0130617 -0.382368 4.11321 -5.78446 2.03217e-16 0.0 3.88251e-19 -8.28817 -8.71567 -8.59754 0.081633 12.5415 -0.043694 0.693412 -23.068 0.774613
